/* XPM */
static char *gimp[] = {
/* columns rows colors chars-per-pixel */
"48 48 151 2 ",
"   c #060503",
".  c #080807",
"X  c #070808",
"o  c #0C0C0C",
"O  c #120A02",
"+  c #13100A",
"@  c #0F1112",
"#  c #131313",
"$  c #141718",
"%  c #151819",
"&  c #1A1C1C",
"*  c #27251D",
"=  c #1C1F20",
"-  c #1E2123",
";  c #232425",
":  c #262A2B",
">  c #2A2C2D",
",  c #302C23",
"<  c #333026",
"1  c #3A362B",
"2  c #2E3335",
"3  c #333333",
"4  c #393A37",
"5  c #323738",
"6  c #353A3C",
"7  c #393C3C",
"8  c #663807",
"9  c #673C0C",
"0  c #6A3C0A",
"q  c #633E13",
"w  c #553E23",
"e  c #423E31",
"r  c #3E403D",
"t  c #73420D",
"y  c #7E470B",
"u  c #6A4013",
"i  c #574429",
"p  c #464134",
"a  c #494436",
"s  c #43433E",
"d  c #4C4638",
"f  c #4E493B",
"g  c #524C3D",
"h  c #5B4D3A",
"j  c #754E24",
"k  c #75542E",
"l  c #755734",
"z  c #3C4244",
"x  c #444542",
"c  c #484740",
"v  c #464947",
"b  c #4B4A42",
"n  c #464B4B",
"m  c #4A4C4B",
"M  c #534E43",
"N  c #4E514C",
"B  c #565142",
"V  c #5A5444",
"C  c #5F5847",
"Z  c #53524A",
"A  c #5B564A",
"S  c #5E5A4C",
"D  c #4E5254",
"F  c #545555",
"G  c #575857",
"H  c #5A5954",
"J  c #535759",
"K  c #55595A",
"L  c #5C5D5E",
"P  c #605947",
"I  c #635C4A",
"U  c #635E51",
"Y  c #67604E",
"T  c #69614E",
"R  c #656053",
"E  c #6C6552",
"W  c #6E695B",
"Q  c #726A55",
"!  c #736D5E",
"~  c #79715B",
"^  c #5B5F60",
"/  c #5D6263",
"(  c #6C6B65",
")  c #666A6B",
"_  c #6B6D6D",
"`  c #787467",
"'  c #7B7769",
"]  c #6B6F70",
"[  c #6E7272",
"{  c #737575",
"}  c #7A7A76",
"|  c #767B7B",
" . c #7B7C7C",
".. c #82490B",
"X. c #93520C",
"o. c #98540C",
"O. c #874E10",
"+. c #B1620E",
"@. c #BC6D19",
"#. c #C56D10",
"$. c #CD7111",
"%. c #D57612",
"&. c #886F55",
"*. c #837D6D",
"=. c #7D807C",
"-. c #84847C",
";. c #8A887E",
":. c #998774",
">. c #7E8183",
",. c #848683",
"<. c #878881",
"1. c #898B85",
"2. c #8B8D8B",
"3. c #918C81",
"4. c #8F908B",
"5. c #91918B",
"6. c #888E90",
"7. c #8F9293",
"8. c #929393",
"9. c #999B97",
"0. c #959798",
"q. c #9B9C9A",
"w. c #A3A39D",
"e. c #9EA1A2",
"r. c #A3A4A3",
"t. c #A7A8A4",
"y. c #ABABA4",
"u. c #A7A7A8",
"i. c #A7A9AA",
"p. c #ABACAC",
"a. c #B4B5AE",
"s. c #B4B5B4",
"d. c #B9B7B5",
"f. c #BBBBB5",
"g. c #BCBCBC",
"h. c #BFC0BB",
"j. c #C3C3BD",
"k. c #C4C4C4",
"l. c #C9C9C3",
"z. c #CCCCCB",
"x. c #CFD0CE",
"c. c #D2D2CC",
"v. c #CFD1D2",
"b. c #D4D4D4",
"n. c #DBDBDB",
"m. c #DFE0DF",
"M. c #E4E4E4",
"N. c #E7E7E8",
"B. c #EBEBEB",
"V. c #F4F4F4",
"C. c #FFFFFF",
/* pixels */
"C.C.C.C.C.C.C.C.C.C.C.C.C.C.C.C.C.C.C.C.C.C.C.C.C.C.C.C.C.C.C.C.C.C.C.C.C.C.C.C.C.C.C.C.C.C.C.C.",
"C.C.C.C.C.C.C.C.C.C.C.C.C.C.C.C.C.C.C.C.C.C.C.C.C.C.C.C.C.C.C.C.C.C.C.C.C.C.C.C.C.C.C.C.C.C.C.C.",
"C.C.C.C.C.C.C.C.C.C.C.C.C.C.C.C.C.C.C.C.C.C.C.C.C.C.C.C.C.C.C.C.C.C.C.C.C.C.C.C.C.C.C.C.C.C.C.C.",
"C.C.C.C.C.C.C.C.C.C.C.C.C.C.C.C.C.C.C.C.C.C.C.C.C.C.C.C.C.C.C.C.C.C.C.C.C.C.C.C.C.C.C.C.C.C.C.C.",
"C.C.C.C.C.C.C.C.C.C.C.C.C.C.C.C.C.C.C.C.C.C.C.C.C.C.C.C.C.C.C.C.C.C.C.C.C.C.C.C.C.C.C.C.C.C.C.C.",
"C.C.C.C.C.C.C.C.C.C.C.C.C.C.C.C.C.C.C.C.C.C.C.C.C.C.C.C.C.C.C.C.C.C.C.C.C.C.C.C.C.C.C.C.C.C.C.C.",
"C.C.C.C.C.C.C.C.C.C.C.C.C.C.C.C.C.C.C.C.C.C.C.C.C.C.C.C.C.C.C.C.C.C.C.C.C.C.C.C.C.C.C.C.C.C.C.C.",
"C.C.C.C.C.C.C.C.C.C.C.C.C.C.C.C.C.C.C.C.C.C.C.C.C.C.C.C.C.C.C.C.C.C.C.C.C.C.C.C.C.C.C.C.C.C.C.C.",
"C.C.C.C.C.C.C.C.C.C.C.C.C.C.C.C.C.C.C.C.C.C.C.C.C.C.C.C.C.C.C.C.C.C.C.C.B./ V.C.C.C.C.C.C.C.C.C.",
"C.C.C.C.C.C.C.C.C.C.C.C.C.C.C.C.C.C.C.C.C.C.C.C.C.C.C.C.C.C.C.C.C.C.C.C.] 5 s.C.C.C.C.C.C.C.C.C.",
"C.C.C.C.C.C.C.C.C.C.C.C.C.C.C.C.C.C.C.C.C.C.C.C.C.C.C.C.C.C.C.C.C.C.C.m.6 4 e.C.C.C.C.C.C.C.C.C.",
"C.C.C.C.C.C.C.C.C.N.s.C.C.C.C.C.C.C.C.C.C.C.C.C.C.C.C.C.C.C.C.C.C.C.V.K x s 8.C.C.C.C.C.C.C.C.C.",
"C.C.C.C.C.C.C.C.C.M.z V.C.C.C.C.C.C.C.C.C.C.C.C.C.C.C.C.C.C.C.C.C.C.] x A s >.C.C.C.C.C.C.C.C.C.",
"C.C.C.C.C.C.C.C.C.m.2 [ C.C.C.C.C.C.C.C.C.C.C.C.C.C.C.C.C.C.C.C.C.2.z A M x { C.C.C.C.C.C.C.C.C.",
"C.C.C.C.C.C.C.C.C.n.z m 7.C.C.C.C.C.C.C.C.C.C.C.C.C.C.C.C.C.C.N./ x S b f c ) C.C.C.C.C.C.C.C.C.",
"C.C.C.C.C.C.C.C.C.b.n ' n | V.C.C.C.C.C.C.C.C.C.C.C.C.C.C.N.2.6 m U M a f b K C.C.C.C.C.C.C.C.C.",
"C.C.C.C.C.C.C.C.C.v.f -.*./ v h.C.C.C.C.V.b.b.B.C.C.n.a.) 6 Z R R g d a f b D C.C.C.C.C.C.C.C.C.",
"C.C.C.C.C.C.C.C.C.z.N -.1.4.1.=.F 2.i.9.5.w.w.5.,.n z N H W R V g g d d f M K C.C.C.C.C.C.C.C.C.",
"C.C.C.C.C.C.C.C.C.k.-.t.N.C.V.h.1.( 1.s.B.V.C.B.f.1.' ! E C V B g g d f B b ) C.C.C.C.C.C.C.C.C.",
"C.C.V.w._ 0.b.C.C.u.9.M.B.M.0.k.a.2.y.m.B.V.M.z.M.a.-.P C C V V g g g d B x >.C.C.C.C.C.C.C.C.C.",
"C.n.o 3 z : o K N.q.h.n.h.C.B.# } 1.c.n.M.n.V.) 3 f.1.Y I C C B B g f d B s 0.C.C.C.C.C.C.C.C.C.",
"V.: ^ k.k.| / - & <.j.c.} C.V.6 : 4.c.b.a.C.C.b.$ G 4.W P C V V V h g f A x i.C.C.C.C.C.C.C.C.C.",
"z.> p.C.C.s.n D * # y.l.r ^ K : * 2.l.c.H g.V.| : @ 2.E P C C V g g g f A x d.C.C.C.C.C.C.C.C.C.",
"r.6 g.C.C.v.z 5 z @ c h.5.X $ X G 1.a.j.5.@ 2 2 & x 1.T P C V V B g g f Z r N.C.C.C.C.C.C.C.C.C.",
"s.3 >.C.C.6.z 2 > - . -.y.t.( ;.-.-.5.f.h.4 X @ & } ` Y h C V h M M f g M x C.C.C.C.C.C.C.C.C.C.",
"m.$ J J ^ z 5 : & : o A ;.;.;.=.~ ~ -.4.y.a.w.;.5.-.Y I Y C V V h g g M x | C.C.C.C.C.C.C.C.C.C.",
"C.3 7 6 2 5 : - $ = + < Q Q Q Q Q Q Q ` ;.1.1.;.` T I I C V V g g g f V v s.C.C.C.C.C.C.C.C.C.C.",
"C.k.$ 4 : - - % $ & o , E E Q Q Q Q Q Q E E T Y I I h 4 g V C g g f g Z 6 N.C.C.C.C.C.C.C.C.C.C.",
"C.C.U $ : = @ % % % X r T T E E T E T E T Y Y Y I I C , + d h g g d B x | N.V.C.C.C.C.C.C.C.C.C.",
"C.C.C.D @ = = % % @ X V Y Y Y Y T T T T Y Y Y P P d +   + + g g f b B 6 g.b.N.V.C.C.C.C.C.C.C.C.",
"C.C.C.C.7.@ @ o X   A I I I Y I I Y P h B g d e * . O y y 8 u i d V r ] h.x.n.B.V.C.C.C.C.C.C.C.",
"C.C.C.C.C.B.e.| ) r N ~ T Y P P C Y h Y h f p 1 1 , p u y #.+.t 9 w x r.g.z.b.N.V.C.C.C.C.C.C.C.",
"C.C.C.C.C.V.B.n.z.s.K 7 F W E I I A V V P B V V g h B g q 9 X.$.%...0 &.d.l.n.M.V.C.C.C.C.C.C.C.",
"C.C.C.C.C.C.B.M.b.k.d.6.F 5 m U U I P B M h g M g g d d d h q 0 o.#.%.O.k 5.n.B.V.C.C.C.C.C.C.C.",
"C.C.C.C.C.C.V.B.n.z.k.d.u.7.^ 6 x Z U U U I A V B B V A M x 3 V u 0 o.@.;.j.w.m.C.C.C.C.C.C.C.C.",
"C.C.C.C.C.C.C.V.B.m.b.k.g.s.r.0.) m 7 5 7 x c b b x s 6 5 D 1.r.s.:.j l 4.B.n.g.g.a.i.b.C.C.C.C.",
"C.C.C.C.C.C.C.C.C.B.N.b.x.k.g.d.p.r.e.0.,.[ ^ m D L ) ,.r.p.s.g.k.z.b.y.3.5.s.B.{  .r.x g.C.C.C.",
"C.C.C.C.C.C.C.C.C.C.C.V.N.M.n.x.z.k.g.g.s.s.s.s.s.s.g.g.k.k.z.b.m.N.V.V.C.V.x.q.L { 2.x 3 V.C.C.",
"C.C.C.C.C.C.C.C.C.C.C.C.C.C.V.B.M.m.m.b.b.b.b.b.b.n.n.n.m.M.B.V.C.C.C.C.C.C.C.C._ U m 3 : s.C.C.",
"C.C.C.C.C.C.C.C.C.C.C.C.C.C.C.C.C.C.C.C.V.C.V.V.V.V.V.C.C.C.C.C.C.C.C.C.C.C.C.C.z.D 7 < # L C.C.",
"C.C.C.C.C.C.C.C.C.C.C.C.C.C.C.C.C.C.C.C.C.C.C.C.C.C.C.C.C.C.C.C.C.C.C.C.C.C.C.C.C.m. .; o o C.C.",
"C.C.C.C.C.C.C.C.C.C.C.C.C.C.C.C.C.C.C.C.C.C.C.C.C.C.C.C.C.C.C.C.C.C.C.C.C.C.C.C.C.C.C.M.} @ s.C.",
"C.C.C.C.C.C.C.C.C.C.C.C.C.C.C.C.C.C.C.C.C.C.C.C.C.C.C.C.C.C.C.C.C.C.C.C.C.C.C.C.C.C.C.C.C.V.b.C.",
"C.C.C.C.C.C.C.C.C.C.C.C.C.C.C.C.C.C.C.C.C.C.C.C.C.C.C.C.C.C.C.C.C.C.C.C.C.C.C.C.C.C.C.C.C.C.C.C.",
"C.C.C.C.C.C.C.C.C.C.C.C.C.C.C.C.C.C.C.C.C.C.C.C.C.C.C.C.C.C.C.C.C.C.C.C.C.C.C.C.C.C.C.C.C.C.C.C.",
"C.C.C.C.C.C.C.C.C.C.C.C.C.C.C.C.C.C.C.C.C.C.C.C.C.C.C.C.C.C.C.C.C.C.C.C.C.C.C.C.C.C.C.C.C.C.C.C.",
"C.C.C.C.C.C.C.C.C.C.C.C.C.C.C.C.C.C.C.C.C.C.C.C.C.C.C.C.C.C.C.C.C.C.C.C.C.C.C.C.C.C.C.C.C.C.C.C.",
"C.C.C.C.C.C.C.C.C.C.C.C.C.C.C.C.C.C.C.C.C.C.C.C.C.C.C.C.C.C.C.C.C.C.C.C.C.C.C.C.C.C.C.C.C.C.C.C."
};
